<svg xmlns="http://www.w3.org/2000/svg" viewBox="0 0 285.42 70.5" class="isvg" preserveAspectRatio="xMidYMid meet"><title>Solidus Logo</title><path d="M83.88,33.21l-8-1.51c-3.08-.51-4.83-1.68-4.83-3.89,0-3,3.39-4.67,6.81-4.67,2.61,0,6.07.81,10,4.12l4.55-5.6c-5.06-3.62-9.57-5.14-14.7-5.14-9.26,0-14.56,5.84-14.56,12.1,0,5.29,2.92,8.64,13.35,10.59l4.51.85c2.92.55,4.83,1.83,4.83,4.28,0,2.06-2.77,4.67-7.36,4.67-4.12,0-8.79-2.37-11.63-5.45l-5.54,5.53c5.06,4.28,10.43,6.5,16.69,6.5,11.25,0,15.68-7,15.68-12.49S90.45,34.42,83.88,33.21Z" class="solidus-logo" fill="#242830"></path><path d="M117.3,16.52c-13,0-20.43,9.73-20.43,19.5s7.51,19.49,20.43,19.49S137.73,45.78,137.73,36,130.22,16.52,117.3,16.52Zm0,31.56a12,12,0,1,1,12-12,11.81,11.81,0,0,1-11.62,12Z" class="solidus-logo" fill="#242830"></path><path d="M165.16,6.41a4,4,0,1,0,4,4A4,4,0,0,0,165.16,6.41Z" class="solidus-logo" fill="#242830"></path><rect x="161.19" y="22.36" width="7.94" height="33.19" class="solidus-logo" fill="#242830"></rect><path d="M205.85,20.38a20.84,20.84,0,0,0-12.49-3.82c-12.91,0-20.42,9.73-20.42,19.49s7.51,19.5,20.42,19.5a21.13,21.13,0,0,0,12.49-3.84v3.82h7.94V6.41h-7.94Zm-12.49,27.7a12,12,0,1,1,12-12,11.81,11.81,0,0,1-11.62,12Z" class="solidus-logo" fill="#242830"></path><path d="M243.61,38.27a9,9,0,1,1-17.9,0V16.6h-8V39c0,10.43,8.13,16.62,16.92,16.62s17-6.23,17-16.62V16.6h-8Z" class="solidus-logo" fill="#242830"></path><path d="M275.61,33.33l-8-1.52c-3.08-.5-4.83-1.67-4.83-3.89,0-3,3.39-4.67,6.81-4.67,2.61,0,6.07.82,10,4.13l4.55-5.6c-5.05-3.62-9.57-5.14-14.7-5.14-9.26,0-14.55,5.84-14.55,12.1,0,5.25,2.91,8.64,13.3,10.54l4.52.86c2.91.54,4.82,1.83,4.82,4.28,0,2.06-2.76,4.67-7.35,4.67-4.13,0-8.8-2.37-11.64-5.45l-5.44,5.57c5,4.28,10.37,6.5,16.64,6.5,11.24,0,15.68-7,15.68-12.49S282.19,34.54,275.61,33.33Z" class="solidus-logo" fill="#242830"></path><path d="M149.67,40.37V14.62c0-7.75-3.81-10.55-12-14.48l-3.5,6.27,4.28,2.45c2.21,1.28,3.11,2.72,3.23,6.46V41.11c0,7.75,3.81,10.55,12,14.48l3.5-6.27-4.28-2.49C150.68,45.55,149.79,44.11,149.67,40.37Z" class="solidus-logo" fill="#242830"></path><path d="M0,70.5H43.88V0H0ZM6.28,6.28H37.5V64.12H6.28Z" class="solidus-logo" fill="#242830"></path><path d="M25,45V25.14c0-6-2.94-8.13-9.27-11.16l-2.7,4.83,3.3,1.9c1.71,1,2.4,2.1,2.49,5v19.9c0,6,2.94,8.13,9.27,11.16l2.71-4.83L27.51,50C25.8,49,25.11,47.89,25,45Z" class="solidus-logo" fill="#242830"></path></svg>
